<mxfile host="app.diagrams.net" modified="2022-04-04T18:13:38.211Z" agent="5.0 (Macintosh; Intel Mac OS X 10_15_7) AppleWebKit/537.36 (KHTML, like Gecko) Chrome/98.0.4758.119 YaBrowser/22.3.0.2485 Yowser/2.5 Safari/537.36" etag="3MaxzfTrG5HGC_t15uli" version="17.4.0" type="github">
  <diagram id="B-B90RXTGbl79Rgixvle" name="Page-1">
    <mxGraphModel dx="2066" dy="1165" grid="1" gridSize="10" guides="1" tooltips="1" connect="1" arrows="1" fold="1" page="1" pageScale="1" pageWidth="827" pageHeight="1169" math="0" shadow="0">
      <root>
        <mxCell id="0" />
        <mxCell id="1" parent="0" />
        <mxCell id="3fjBUj92L4E8t3GBYXzq-1" value="Player" style="shape=umlActor;verticalLabelPosition=bottom;verticalAlign=top;html=1;outlineConnect=0;" parent="1" vertex="1">
          <mxGeometry x="630" y="190" width="30" height="60" as="geometry" />
        </mxCell>
        <mxCell id="3fjBUj92L4E8t3GBYXzq-2" value="Master" style="shape=umlActor;verticalLabelPosition=bottom;verticalAlign=top;html=1;outlineConnect=0;" parent="1" vertex="1">
          <mxGeometry x="630" y="330" width="30" height="60" as="geometry" />
        </mxCell>
        <mxCell id="3fjBUj92L4E8t3GBYXzq-3" value="front" style="rounded=0;whiteSpace=wrap;html=1;" parent="1" vertex="1">
          <mxGeometry x="310" y="260" width="120" height="60" as="geometry" />
        </mxCell>
        <mxCell id="3fjBUj92L4E8t3GBYXzq-5" value="API" style="rounded=0;whiteSpace=wrap;html=1;" parent="1" vertex="1">
          <mxGeometry x="110" y="360" width="440" height="20" as="geometry" />
        </mxCell>
      </root>
    </mxGraphModel>
  </diagram>
</mxfile>
